<svg xmlns="http://www.w3.org/2000/svg" width="24" height="24" viewBox="0 0 24 24" fill="none">
  <path d="M2 3.75C2 2.784 2.784 2 3.75 2H20.25C21.216 2 22 2.784 22 3.75V20.25C22 20.7141 21.8156 21.1592 21.4874 21.4874C21.1592 21.8156 20.7141 22 20.25 22H9.75C9.55109 22 9.36032 21.921 9.21967 21.7803C9.07902 21.6397 9 21.4489 9 21.25C9 21.0511 9.07902 20.8603 9.21967 20.7197C9.36032 20.579 9.55109 20.5 9.75 20.5H20.25C20.3163 20.5 20.3799 20.4737 20.4268 20.4268C20.4737 20.3799 20.5 20.3163 20.5 20.25V9H3.5V12C3.5 12.1989 3.42098 12.3897 3.28033 12.5303C3.13968 12.671 2.94891 12.75 2.75 12.75C2.55109 12.75 2.36032 12.671 2.21967 12.5303C2.07902 12.3897 2 12.1989 2 12V3.75ZM9 7.5H20.5V3.75C20.5 3.6837 20.4737 3.62011 20.4268 3.57322C20.3799 3.52634 20.3163 3.5 20.25 3.5H9V7.5ZM3.5 7.5H7.5V3.5H3.75C3.6837 3.5 3.62011 3.52634 3.57322 3.57322C3.52634 3.62011 3.5 3.6837 3.5 3.75V7.5Z" fill="#74788D"/>
  <path d="M9.308 14.5L7.204 12.264C7.13438 12.1927 7.07967 12.1082 7.04306 12.0156C7.00645 11.9229 6.98867 11.8238 6.99077 11.7242C6.99286 11.6246 7.01479 11.5264 7.05527 11.4353C7.09575 11.3443 7.15396 11.2622 7.22652 11.1939C7.29907 11.1256 7.38451 11.0724 7.47784 11.0375C7.57117 11.0026 7.67052 10.9867 7.77008 10.9906C7.86965 10.9945 7.96744 11.0182 8.05774 11.0603C8.14804 11.1025 8.22904 11.1622 8.296 11.236L11.59 14.736C11.7209 14.8751 11.7938 15.0589 11.7938 15.25C11.7938 15.441 11.7209 15.6249 11.59 15.764L8.296 19.264C8.22904 19.3378 8.14804 19.3975 8.05774 19.4396C7.96744 19.4817 7.86965 19.5055 7.77008 19.5094C7.67052 19.5133 7.57117 19.4973 7.47784 19.4624C7.38451 19.4275 7.29907 19.3743 7.22652 19.306C7.15396 19.2377 7.09575 19.1557 7.05527 19.0646C7.01479 18.9736 6.99286 18.8754 6.99077 18.7757C6.98867 18.6761 7.00645 18.5771 7.04306 18.4844C7.07967 18.3917 7.13438 18.3073 7.204 18.236L9.308 16H6.09C5.40309 16 4.74431 16.2728 4.25859 16.7586C3.77287 17.2443 3.5 17.9031 3.5 18.59V21.25C3.5 21.4489 3.42098 21.6397 3.28033 21.7803C3.13968 21.921 2.94891 22 2.75 22C2.55109 22 2.36032 21.921 2.21967 21.7803C2.07902 21.6397 2 21.4489 2 21.25V18.59C2 17.5052 2.43091 16.4649 3.19793 15.6979C3.96496 14.9309 5.00526 14.5 6.09 14.5H9.308Z" fill="#74788D"/>
</svg>