<svg xmlns="http://www.w3.org/2000/svg" width="24" height="24" viewBox="0 0 24 24" fill="none">
  <g opacity="0.5" clip-path="url(#clip0_424_111442)">
    <path d="M20.4443 4.82025C18.7895 6.39469 17.3808 7.62619 17.3261 7.56383C17.2714 7.50148 16.8748 6.78441 16.4372 5.9738C15.9038 4.96055 15.5619 4.49289 15.3705 4.46172C15.2064 4.43054 15.0423 4.50848 15.0012 4.63319C14.9465 4.82025 16.7244 8.54591 17.0937 8.99798C17.1347 9.06033 18.7211 7.67295 20.5947 5.89586C23.0974 3.52641 24 2.59109 24 2.34168C24 1.57784 23.4393 1.96755 20.4443 4.82025Z" fill="#3F3F3F"/>
    <path d="M2.7037 3.2107C2.03704 3.5519 1.57778 4.0266 1.28148 4.67933C1.02963 5.2282 1 5.80675 1 12.9867C1 20.1666 1.02963 20.7451 1.28148 21.294C1.60741 22.0061 2.08148 22.466 2.80741 22.7775C3.28148 22.9703 4.43704 23 11.0296 23C18.1556 23 18.7481 22.9703 19.2963 22.7181C20.037 22.3918 20.6444 21.6946 20.8519 20.9528C20.9407 20.6116 21 18.0601 21 14.3811C21 8.04677 20.9852 7.86875 20.3481 8.10611C20.1407 8.19511 20.1111 8.80333 20.1111 14.3811C20.1111 21.2792 20.1111 21.2792 19.0593 21.8429C18.6 22.0951 18.037 22.1099 11 22.1099C3.94815 22.1099 3.4 22.0951 2.92593 21.8429C1.87407 21.2792 1.88889 21.4424 1.88889 12.9422C1.88889 4.54581 1.87407 4.73866 2.82222 4.16012C3.26667 3.87826 3.60741 3.86342 9.81481 3.86342C13.4 3.86342 16.4222 3.80409 16.5259 3.72991C16.6444 3.65574 16.7037 3.47773 16.6741 3.32938C16.6296 3.06236 16.3481 3.04752 9.88889 3.01785C4.00741 2.97335 3.08889 3.00302 2.7037 3.2107Z" fill="#3F3F3F"/>
    <path d="M10.3123 10.148C9.15338 10.5605 8.68981 11.5535 9.21519 12.5159C9.3388 12.7298 9.89508 13.127 10.4823 13.4325C11.5639 13.9825 11.8112 14.3186 11.4558 14.7616C11.3012 14.9297 11.054 14.9755 10.4668 14.9144C10.0496 14.8838 9.57059 14.7922 9.43152 14.7311C9.23064 14.6547 9.15338 14.7463 9.06066 15.1894C9.01431 15.4949 9.01431 15.7852 9.06066 15.8463C9.26154 16.0296 11.2858 16.0602 11.8575 15.8768C12.831 15.556 13.2946 14.3491 12.8001 13.4325C12.6765 13.2186 12.1202 12.8214 11.5176 12.5159C10.6368 12.0729 10.4668 11.9201 10.4668 11.5993C10.4668 11.2326 10.4977 11.2174 11.5021 11.2326C12.522 11.2479 12.5374 11.2326 12.6456 10.7896C12.6919 10.5452 12.6765 10.2855 12.6147 10.2244C12.3365 9.96466 10.9458 9.91883 10.3123 10.148Z" fill="#3F3F3F"/>
    <path d="M4.69118 10.182C3.61765 10.695 3 11.7364 3 13.0421C3 14.4411 3.66176 15.4669 4.85294 15.8711C5.41176 16.0732 7.5 16.0265 7.82353 15.8089C7.94118 15.7312 8 15.1716 8 14.1457V12.6069H6.97059H5.94118V13.0576C5.94118 13.4462 6 13.524 6.35294 13.5706C6.70588 13.6172 6.75 13.6794 6.75 14.239C6.75 14.8452 6.73529 14.8607 6.20588 14.9074C4.79412 15.0317 3.85294 13.3841 4.54412 11.9851C4.89706 11.2701 5.52941 11.0059 6.61765 11.0991C7.54412 11.1768 7.54412 11.1768 7.69118 10.695C7.77941 10.4307 7.80882 10.182 7.76471 10.1354C7.57353 9.93334 5.13235 9.96443 4.69118 10.182Z" fill="#3F3F3F"/>
    <path d="M14 10.5231V11.0615L14.7067 11.1077L15.4 11.1538L15.44 13.5692L15.48 16H16H16.52L16.56 13.5692L16.6 11.1538L17.3067 11.1077L18 11.0615V10.5231V10H16H14V10.5231Z" fill="#3F3F3F"/>
  </g>
  <defs>
    <clipPath id="clip0_424_111442">
      <rect width="24" height="24" fill="white"/>
    </clipPath>
  </defs>
</svg>