<svg xmlns="http://www.w3.org/2000/svg" width="44" height="44" viewBox="0 0 44 44" fill="none">
  <path fill-rule="evenodd" clip-rule="evenodd" d="M19.4225 4.25147C20.2274 3.86686 21.1081 3.66724 22.0002 3.66724C22.8922 3.66724 23.773 3.86686 24.5778 4.25147C25.2873 4.59064 25.9345 5.1443 26.8347 5.91064L26.9777 6.03164C27.414 6.4038 27.5515 6.51747 27.6908 6.61097C28.0447 6.8493 28.4425 7.01247 28.8587 7.09497C29.0237 7.12797 29.2015 7.14447 29.7735 7.18847L29.9587 7.20314C31.1357 7.29664 31.9863 7.36447 32.727 7.6248C33.5684 7.92295 34.3325 8.40522 34.9637 9.03641C35.5949 9.6676 36.0772 10.4318 36.3753 11.2731C36.6357 12.0138 36.7017 12.8645 36.797 14.0415L36.8117 14.2266C36.8557 14.7986 36.8722 14.9783 36.9052 15.1415C36.9877 15.5595 37.1527 15.9573 37.3892 16.3111C37.4827 16.4486 37.5963 16.5861 37.9685 17.0225L38.0895 17.1655C38.8577 18.0638 39.4095 18.7128 39.7487 19.4205C40.5278 21.0521 40.5278 22.9478 39.7487 24.5776C39.4113 25.2871 38.8577 25.9343 38.0895 26.8345L37.9685 26.9775C37.763 27.2049 37.5696 27.4429 37.3892 27.6906C37.1508 28.0445 36.9877 28.4423 36.9052 28.8585C36.8722 29.0235 36.8575 29.2013 36.8117 29.7733L36.7952 29.9585C36.7035 31.1355 36.6357 31.9861 36.3735 32.7268C36.0767 33.5686 35.5951 34.3333 34.9641 34.9646C34.3331 35.5959 33.5687 36.0779 32.727 36.3751C31.9863 36.6355 31.1357 36.7015 29.9587 36.7968L29.7735 36.8115C29.4671 36.8265 29.1618 36.8577 28.8587 36.905C28.4412 36.9875 28.0443 37.152 27.6908 37.389C27.4426 37.5696 27.204 37.7629 26.9758 37.9683L26.8347 38.0893C25.9363 38.8575 25.2873 39.4093 24.5797 39.7485C23.7745 40.1334 22.8935 40.3331 22.0011 40.3331C21.1087 40.3331 20.2276 40.1334 19.4225 39.7485C18.713 39.4111 18.0658 38.8575 17.1657 38.0893C17.118 38.0489 17.0704 38.0086 17.0227 37.9683C16.7958 37.7629 16.5584 37.5695 16.3113 37.389C15.9575 37.1514 15.5599 36.9868 15.1417 36.905C14.8386 36.8577 14.5332 36.8265 14.2268 36.8115L14.0417 36.795C12.8647 36.7033 12.014 36.6355 11.2733 36.3733C10.4316 36.0764 9.66698 35.5948 9.03566 34.9638C8.40435 34.3328 7.92234 33.5684 7.625 32.7268C7.36466 31.9861 7.29683 31.1355 7.20333 29.9585L7.18866 29.7733C7.1736 29.4669 7.14239 29.1616 7.09516 28.8585C7.0126 28.441 6.84809 28.0441 6.61116 27.6906C6.43082 27.4422 6.23744 27.2036 6.03183 26.9756L5.91083 26.8345C5.1445 25.9361 4.59083 25.2871 4.25167 24.5795C3.86677 23.7744 3.66699 22.8933 3.66699 22.0009C3.66699 21.1085 3.86677 20.2274 4.25167 19.4223C4.59083 18.7128 5.1445 18.0656 5.91083 17.1655L6.03183 17.0225C6.23728 16.7957 6.43066 16.5582 6.61116 16.3111C6.8495 15.9573 7.01266 15.5595 7.09516 15.1415C7.12816 14.9765 7.14467 14.7986 7.18866 14.2266L7.20333 14.0415C7.29683 12.8645 7.36466 12.0138 7.625 11.2731C7.9221 10.4312 8.40401 9.66647 9.03534 9.03515C9.66667 8.40382 10.4314 7.92191 11.2733 7.6248C12.014 7.36447 12.8647 7.29664 14.0417 7.20314L14.2268 7.18847C14.5333 7.17445 14.8387 7.14324 15.1417 7.09497C15.5597 7.01247 15.9575 6.84747 16.3113 6.61097C16.4488 6.51747 16.5863 6.4038 17.0227 6.03164L17.1657 5.91064C18.064 5.1443 18.7148 4.59064 19.4225 4.25147ZM23.388 6.74114C22.9546 6.53409 22.4804 6.42663 22.0002 6.42663C21.5199 6.42663 21.0457 6.53409 20.6123 6.74114C20.2732 6.90247 19.9157 7.19397 18.8138 8.1308L18.7588 8.17664C18.3977 8.48464 18.1355 8.71014 17.8477 8.90264C17.1895 9.34264 16.4525 9.64881 15.6752 9.80097C15.336 9.8688 14.9913 9.89631 14.5165 9.9348L14.4468 9.9403C13.004 10.0558 12.5475 10.1035 12.1918 10.2281C11.2752 10.5526 10.5528 11.2731 10.2302 12.1916C10.1018 12.5473 10.056 13.0038 9.9405 14.4466L9.935 14.5163C9.89833 14.9911 9.869 15.3358 9.803 15.675C9.649 16.4523 9.34466 17.1893 8.90466 17.8475C8.71033 18.1353 8.48483 18.3975 8.17683 18.7605L8.131 18.8136C7.19416 19.9136 6.90267 20.273 6.74133 20.6103C6.534 21.0439 6.42639 21.5184 6.42639 21.9991C6.42639 22.4797 6.534 22.9542 6.74133 23.3878C6.90267 23.727 7.19416 24.0845 8.131 25.1863L8.17683 25.2413C8.48483 25.6025 8.71033 25.8646 8.90283 26.1525C9.34283 26.8106 9.649 27.5476 9.80117 28.3231C9.869 28.6641 9.8965 29.0088 9.935 29.4836L9.9405 29.5533C10.056 30.9961 10.1037 31.4526 10.2283 31.8083C10.5528 32.725 11.2733 33.4473 12.1918 33.77C12.5475 33.8983 13.004 33.9441 14.4468 34.0596L14.5165 34.0651C14.9913 34.1018 15.336 34.1311 15.6752 34.1971C16.4525 34.3511 17.1895 34.6555 17.8477 35.0955C18.1355 35.2898 18.3977 35.5153 18.7607 35.8233L18.8138 35.8691C19.9138 36.806 20.2732 37.0975 20.6105 37.2588C21.0441 37.4661 21.5186 37.5737 21.9992 37.5737C22.4799 37.5737 22.9544 37.4661 23.388 37.2588C23.7272 37.0975 24.0847 36.806 25.1865 35.8691L25.2415 35.8233C25.6027 35.5153 25.8648 35.2898 26.1527 35.0973C26.8097 34.6572 27.5475 34.3519 28.3233 34.199C28.7073 34.1321 29.0947 34.0874 29.4838 34.0651L29.5535 34.0596C30.9963 33.9441 31.4528 33.8965 31.8085 33.7718C32.7252 33.4473 33.4475 32.7268 33.7702 31.8083C33.8985 31.4526 33.9443 30.9943 34.0598 29.5533L34.0653 29.4836C34.087 29.0946 34.1311 28.7071 34.1973 28.3231C34.3513 27.5476 34.6557 26.8106 35.0957 26.1525C35.29 25.8646 35.5155 25.6025 35.8235 25.2395L35.8693 25.1863C36.8062 24.0863 37.0977 23.727 37.259 23.3896C37.4663 22.956 37.5739 22.4815 37.5739 22.0009C37.5739 21.5203 37.4663 21.0457 37.259 20.6121C37.0977 20.273 36.8062 19.9155 35.8693 18.8136L35.8235 18.7586C35.5155 18.3975 35.29 18.1353 35.0975 17.8475C34.6573 17.1899 34.3519 16.4514 34.1992 15.675C34.1324 15.2916 34.0877 14.9048 34.0653 14.5163L34.0598 14.4466C33.9443 13.0038 33.8967 12.5473 33.772 12.1916C33.4475 11.275 32.727 10.5526 31.8085 10.23C31.4528 10.1016 30.9945 10.0558 29.5535 9.9403L29.4838 9.9348C29.0948 9.91299 28.7073 9.86892 28.3233 9.8028C27.5475 9.64982 26.8097 9.34448 26.1527 8.90447C25.8648 8.71014 25.6027 8.48464 25.2397 8.17664L25.1865 8.1308C24.0865 7.19397 23.7272 6.90247 23.3898 6.74114H23.388ZM29.4142 16.4248C29.5426 16.5529 29.6445 16.705 29.714 16.8726C29.7836 17.0401 29.8194 17.2197 29.8194 17.4011C29.8194 17.5824 29.7836 17.762 29.714 17.9296C29.6445 18.0971 29.5426 18.2492 29.4142 18.3773L20.2163 27.5751C19.9575 27.8335 19.6067 27.9787 19.241 27.9787C18.8753 27.9787 18.5245 27.8335 18.2657 27.5751L14.5862 23.8956C14.4493 23.7696 14.3393 23.6172 14.2628 23.4475C14.1863 23.2779 14.1449 23.0946 14.1411 22.9085C14.1373 22.7225 14.1711 22.5376 14.2405 22.365C14.31 22.1923 14.4136 22.0355 14.5451 21.904C14.6767 21.7724 14.8335 21.6688 15.0062 21.5993C15.1788 21.5299 15.3637 21.4961 15.5497 21.4999C15.7358 21.5037 15.9191 21.5451 16.0887 21.6216C16.2584 21.6981 16.4108 21.8081 16.5368 21.945L19.241 24.6473L27.4635 16.4266C27.7223 16.1683 28.0731 16.0231 28.4388 16.0231C28.8046 16.0231 29.1553 16.1683 29.4142 16.4266V16.4248Z" fill="#69CD63"/>
</svg>