<svg width="118" height="16" viewBox="0 0 118 16" fill="none" xmlns="http://www.w3.org/2000/svg">
<path d="M0.86 8.02C0.86 6.66 1.16667 5.44 1.78 4.36C2.39333 3.26667 3.22667 2.41333 4.28 1.8C5.34667 1.18667 6.52667 0.879999 7.82 0.879999C9.34 0.879999 10.6667 1.24667 11.8 1.98C12.9333 2.71333 13.76 3.75333 14.28 5.1H12.1C11.7133 4.26 11.1533 3.61333 10.42 3.16C9.7 2.70667 8.83333 2.48 7.82 2.48C6.84667 2.48 5.97333 2.70667 5.2 3.16C4.42667 3.61333 3.82 4.26 3.38 5.1C2.94 5.92667 2.72 6.9 2.72 8.02C2.72 9.12667 2.94 10.1 3.38 10.94C3.82 11.7667 4.42667 12.4067 5.2 12.86C5.97333 13.3133 6.84667 13.54 7.82 13.54C8.83333 13.54 9.7 13.32 10.42 12.88C11.1533 12.4267 11.7133 11.78 12.1 10.94H14.28C13.76 12.2733 12.9333 13.3067 11.8 14.04C10.6667 14.76 9.34 15.12 7.82 15.12C6.52667 15.12 5.34667 14.82 4.28 14.22C3.22667 13.6067 2.39333 12.76 1.78 11.68C1.16667 10.6 0.86 9.38 0.86 8.02ZM18.8092 5.82C19.1292 5.19333 19.5826 4.70667 20.1692 4.36C20.7692 4.01333 21.4959 3.84 22.3492 3.84V5.72H21.8692C19.8292 5.72 18.8092 6.82667 18.8092 9.04V15H16.9892V4.04H18.8092V5.82ZM29.2302 15.18C28.2035 15.18 27.2702 14.9467 26.4302 14.48C25.6035 14.0133 24.9502 13.3533 24.4702 12.5C24.0035 11.6333 23.7702 10.6333 23.7702 9.5C23.7702 8.38 24.0102 7.39333 24.4902 6.54C24.9835 5.67333 25.6502 5.01333 26.4902 4.56C27.3302 4.09333 28.2702 3.86 29.3102 3.86C30.3502 3.86 31.2902 4.09333 32.1302 4.56C32.9702 5.01333 33.6302 5.66667 34.1102 6.52C34.6035 7.37333 34.8502 8.36667 34.8502 9.5C34.8502 10.6333 34.5968 11.6333 34.0902 12.5C33.5968 13.3533 32.9235 14.0133 32.0702 14.48C31.2168 14.9467 30.2702 15.18 29.2302 15.18ZM29.2302 13.58C29.8835 13.58 30.4968 13.4267 31.0702 13.12C31.6435 12.8133 32.1035 12.3533 32.4502 11.74C32.8102 11.1267 32.9902 10.38 32.9902 9.5C32.9902 8.62 32.8168 7.87333 32.4702 7.26C32.1235 6.64667 31.6702 6.19333 31.1102 5.9C30.5502 5.59333 29.9435 5.44 29.2902 5.44C28.6235 5.44 28.0102 5.59333 27.4502 5.9C26.9035 6.19333 26.4635 6.64667 26.1302 7.26C25.7968 7.87333 25.6302 8.62 25.6302 9.5C25.6302 10.3933 25.7902 11.1467 26.1102 11.76C26.4435 12.3733 26.8835 12.8333 27.4302 13.14C27.9768 13.4333 28.5768 13.58 29.2302 13.58ZM51.8431 4.04L48.4231 15H46.5431L43.9031 6.3L41.2631 15H39.3831L35.9431 4.04H37.8031L40.3231 13.24L43.0431 4.04H44.9031L47.5631 13.26L50.0431 4.04H51.8431ZM57.5294 15.18C56.6894 15.18 55.936 15.04 55.2694 14.76C54.6027 14.4667 54.076 14.0667 53.6894 13.56C53.3027 13.04 53.0894 12.4467 53.0494 11.78H54.9294C54.9827 12.3267 55.236 12.7733 55.6894 13.12C56.156 13.4667 56.7627 13.64 57.5094 13.64C58.2027 13.64 58.7494 13.4867 59.1494 13.18C59.5494 12.8733 59.7494 12.4867 59.7494 12.02C59.7494 11.54 59.536 11.1867 59.1094 10.96C58.6827 10.72 58.0227 10.4867 57.1294 10.26C56.316 10.0467 55.6494 9.83333 55.1294 9.62C54.6227 9.39333 54.1827 9.06667 53.8094 8.64C53.4494 8.2 53.2694 7.62667 53.2694 6.92C53.2694 6.36 53.436 5.84667 53.7694 5.38C54.1027 4.91333 54.576 4.54667 55.1894 4.28C55.8027 4 56.5027 3.86 57.2894 3.86C58.5027 3.86 59.4827 4.16667 60.2294 4.78C60.976 5.39333 61.376 6.23333 61.4294 7.3H59.6094C59.5694 6.72667 59.336 6.26667 58.9094 5.92C58.496 5.57333 57.936 5.4 57.2294 5.4C56.576 5.4 56.056 5.54 55.6694 5.82C55.2827 6.1 55.0894 6.46667 55.0894 6.92C55.0894 7.28 55.2027 7.58 55.4294 7.82C55.6694 8.04667 55.9627 8.23333 56.3094 8.38C56.6694 8.51333 57.1627 8.66667 57.7894 8.84C58.576 9.05333 59.216 9.26667 59.7094 9.48C60.2027 9.68 60.6227 9.98667 60.9694 10.4C61.3294 10.8133 61.516 11.3533 61.5294 12.02C61.5294 12.62 61.3627 13.16 61.0294 13.64C60.696 14.12 60.2227 14.5 59.6094 14.78C59.0094 15.0467 58.316 15.18 57.5294 15.18ZM74.0986 9.1C74.0986 9.44667 74.0786 9.81333 74.0386 10.2H65.2786C65.3453 11.28 65.7119 12.1267 66.3786 12.74C67.0586 13.34 67.8786 13.64 68.8386 13.64C69.6253 13.64 70.2786 13.46 70.7986 13.1C71.3319 12.7267 71.7053 12.2333 71.9186 11.62H73.8786C73.5853 12.6733 72.9986 13.5333 72.1186 14.2C71.2386 14.8533 70.1453 15.18 68.8386 15.18C67.7986 15.18 66.8653 14.9467 66.0386 14.48C65.2253 14.0133 64.5853 13.3533 64.1186 12.5C63.6519 11.6333 63.4186 10.6333 63.4186 9.5C63.4186 8.36667 63.6453 7.37333 64.0986 6.52C64.5519 5.66667 65.1853 5.01333 65.9986 4.56C66.8253 4.09333 67.7719 3.86 68.8386 3.86C69.8786 3.86 70.7986 4.08667 71.5986 4.54C72.3986 4.99333 73.0119 5.62 73.4386 6.42C73.8786 7.20667 74.0986 8.1 74.0986 9.1ZM72.2186 8.72C72.2186 8.02667 72.0653 7.43333 71.7586 6.94C71.4519 6.43333 71.0319 6.05333 70.4986 5.8C69.9786 5.53333 69.3986 5.4 68.7586 5.4C67.8386 5.4 67.0519 5.69333 66.3986 6.28C65.7586 6.86667 65.3919 7.68 65.2986 8.72H72.2186ZM81.8409 3.84C83.1743 3.84 84.2543 4.24667 85.0809 5.06C85.9076 5.86 86.3209 7.02 86.3209 8.54V15H84.5209V8.8C84.5209 7.70667 84.2476 6.87333 83.7009 6.3C83.1543 5.71333 82.4076 5.42 81.4609 5.42C80.5009 5.42 79.7343 5.72 79.1609 6.32C78.6009 6.92 78.3209 7.79333 78.3209 8.94V15H76.5009V4.04H78.3209V5.6C78.6809 5.04 79.1676 4.60667 79.7809 4.3C80.4076 3.99333 81.0943 3.84 81.8409 3.84ZM93.1739 15.18C92.3339 15.18 91.5806 15.04 90.9139 14.76C90.2472 14.4667 89.7206 14.0667 89.3339 13.56C88.9472 13.04 88.7339 12.4467 88.6939 11.78H90.5739C90.6272 12.3267 90.8806 12.7733 91.3339 13.12C91.8006 13.4667 92.4072 13.64 93.1539 13.64C93.8472 13.64 94.3939 13.4867 94.7939 13.18C95.1939 12.8733 95.3939 12.4867 95.3939 12.02C95.3939 11.54 95.1806 11.1867 94.7539 10.96C94.3272 10.72 93.6672 10.4867 92.7739 10.26C91.9606 10.0467 91.2939 9.83333 90.7739 9.62C90.2672 9.39333 89.8272 9.06667 89.4539 8.64C89.0939 8.2 88.9139 7.62667 88.9139 6.92C88.9139 6.36 89.0806 5.84667 89.4139 5.38C89.7472 4.91333 90.2206 4.54667 90.8339 4.28C91.4472 4 92.1472 3.86 92.9339 3.86C94.1472 3.86 95.1272 4.16667 95.8739 4.78C96.6206 5.39333 97.0206 6.23333 97.0739 7.3H95.2539C95.2139 6.72667 94.9806 6.26667 94.5539 5.92C94.1406 5.57333 93.5806 5.4 92.8739 5.4C92.2206 5.4 91.7006 5.54 91.3139 5.82C90.9272 6.1 90.7339 6.46667 90.7339 6.92C90.7339 7.28 90.8472 7.58 91.0739 7.82C91.3139 8.04667 91.6072 8.23333 91.9539 8.38C92.3139 8.51333 92.8072 8.66667 93.4339 8.84C94.2206 9.05333 94.8606 9.26667 95.3539 9.48C95.8472 9.68 96.2672 9.98667 96.6139 10.4C96.9739 10.8133 97.1606 11.3533 97.1739 12.02C97.1739 12.62 97.0072 13.16 96.6739 13.64C96.3406 14.12 95.8672 14.5 95.2539 14.78C94.6539 15.0467 93.9606 15.18 93.1739 15.18ZM104.523 15.18C103.496 15.18 102.563 14.9467 101.723 14.48C100.896 14.0133 100.243 13.3533 99.7631 12.5C99.2965 11.6333 99.0631 10.6333 99.0631 9.5C99.0631 8.38 99.3031 7.39333 99.7831 6.54C100.276 5.67333 100.943 5.01333 101.783 4.56C102.623 4.09333 103.563 3.86 104.603 3.86C105.643 3.86 106.583 4.09333 107.423 4.56C108.263 5.01333 108.923 5.66667 109.403 6.52C109.896 7.37333 110.143 8.36667 110.143 9.5C110.143 10.6333 109.89 11.6333 109.383 12.5C108.89 13.3533 108.216 14.0133 107.363 14.48C106.51 14.9467 105.563 15.18 104.523 15.18ZM104.523 13.58C105.176 13.58 105.79 13.4267 106.363 13.12C106.936 12.8133 107.396 12.3533 107.743 11.74C108.103 11.1267 108.283 10.38 108.283 9.5C108.283 8.62 108.11 7.87333 107.763 7.26C107.416 6.64667 106.963 6.19333 106.403 5.9C105.843 5.59333 105.236 5.44 104.583 5.44C103.916 5.44 103.303 5.59333 102.743 5.9C102.196 6.19333 101.756 6.64667 101.423 7.26C101.09 7.87333 100.923 8.62 100.923 9.5C100.923 10.3933 101.083 11.1467 101.403 11.76C101.736 12.3733 102.176 12.8333 102.723 13.14C103.27 13.4333 103.87 13.58 104.523 13.58ZM114.356 5.82C114.676 5.19333 115.129 4.70667 115.716 4.36C116.316 4.01333 117.043 3.84 117.896 3.84V5.72H117.416C115.376 5.72 114.356 6.82667 114.356 9.04V15H112.536V4.04H114.356V5.82Z" fill="#FBA932"/>
</svg>
