<svg width="17" height="18" viewBox="0 0 17 18" fill="none" xmlns="http://www.w3.org/2000/svg">
<g id="Delete">
<path id="Stroke 1" d="M14.104 6.89062C14.104 6.89062 13.6515 12.5031 13.389 14.8673C13.264 15.9965 12.5665 16.6581 11.424 16.679C9.24987 16.7181 7.0732 16.7206 4.89986 16.6748C3.8007 16.6523 3.11486 15.9823 2.99236 14.8731C2.7282 12.4881 2.2782 6.89062 2.2782 6.89062" stroke="white" stroke-width="1.5" stroke-linecap="round" stroke-linejoin="round"/>
<path id="Stroke 3" d="M15.2568 4.19987H1.12512" stroke="white" stroke-width="1.5" stroke-linecap="round" stroke-linejoin="round"/>
<path id="Stroke 5" d="M12.5337 4.19998C11.8796 4.19998 11.3162 3.73748 11.1879 3.09665L10.9854 2.08331C10.8604 1.61581 10.4371 1.29248 9.95457 1.29248H6.42707C5.94457 1.29248 5.52123 1.61581 5.39623 2.08331L5.19373 3.09665C5.0654 3.73748 4.50207 4.19998 3.8479 4.19998" stroke="white" stroke-width="1.5" stroke-linecap="round" stroke-linejoin="round"/>
</g>
</svg>
