<svg xmlns="http://www.w3.org/2000/svg" width="32" height="32" viewBox="0 0 32 32" fill="none">
  <g clip-path="url(#clip0_439_1013)">
    <path d="M13.0573 17.0573C13.2973 16.8182 13.6192 16.6794 13.9578 16.669C14.2964 16.6587 14.6263 16.7776 14.8804 17.0017C15.1345 17.2257 15.2937 17.5381 15.3259 17.8753C15.358 18.2125 15.2605 18.5493 15.0533 18.8173L14.9427 18.9427L8.552 25.3333H12C12.3398 25.3337 12.6667 25.4638 12.9138 25.6971C13.1609 25.9304 13.3096 26.2493 13.3296 26.5885C13.3495 26.9278 13.2391 27.2618 13.021 27.5224C12.8029 27.783 12.4935 27.9505 12.156 27.9907L12 28H5.33333C5.00676 28 4.69155 27.8801 4.4475 27.663C4.20346 27.446 4.04754 27.147 4.00933 26.8227L4 26.6667V20C4.00038 19.6602 4.13051 19.3333 4.3638 19.0862C4.59709 18.8391 4.91594 18.6904 5.25519 18.6704C5.59445 18.6505 5.92851 18.7609 6.18911 18.979C6.44971 19.1971 6.6172 19.5065 6.65733 19.844L6.66667 20V23.448L13.0573 17.0573ZM26.6667 4C26.9932 4.00004 27.3084 4.11994 27.5525 4.33695C27.7965 4.55397 27.9525 4.853 27.9907 5.17733L28 5.33333V12C27.9996 12.3398 27.8695 12.6667 27.6362 12.9138C27.4029 13.1609 27.0841 13.3096 26.7448 13.3296C26.4056 13.3495 26.0715 13.2391 25.8109 13.021C25.5503 12.8029 25.3828 12.4935 25.3427 12.156L25.3333 12V8.552L18.9427 14.9427C18.7027 15.1818 18.3808 15.3206 18.0422 15.331C17.7036 15.3413 17.3737 15.2224 17.1196 14.9983C16.8655 14.7743 16.7063 14.4619 16.6741 14.1247C16.642 13.7875 16.7395 13.4507 16.9467 13.1827L17.0573 13.0573L23.448 6.66667H20C19.6602 6.66629 19.3333 6.53616 19.0862 6.30287C18.8391 6.06958 18.6904 5.75073 18.6704 5.41147C18.6505 5.07222 18.7609 4.73816 18.979 4.47756C19.1971 4.21695 19.5065 4.04947 19.844 4.00933L20 4H26.6667Z" fill="#3F3F3F"/>
  </g>
  <defs>
    <clipPath id="clip0_439_1013">
      <rect width="32" height="32" fill="white"/>
    </clipPath>
  </defs>
</svg>