<svg width="32" height="32" viewBox="0 0 32 32" fill="none" xmlns="http://www.w3.org/2000/svg">
<g id="vuesax/linear/map">
<g id="map">
<path id="Vector" d="M3.05322 10.3735V23.3468C3.05322 25.8801 4.85322 26.9201 7.03989 25.6668L10.1732 23.8801C10.8532 23.4935 11.9866 23.4535 12.6932 23.8135L19.6932 27.3201C20.3999 27.6668 21.5332 27.6401 22.2132 27.2535L27.9866 23.9468C28.7199 23.5201 29.3332 22.4801 29.3332 21.6268V8.65346C29.3332 6.12013 27.5332 5.08013 25.3466 6.33346L22.2132 8.12013C21.5332 8.5068 20.3999 8.5468 19.6932 8.1868L12.6932 4.69346C11.9866 4.3468 10.8532 4.37346 10.1732 4.76013L4.39989 8.0668C3.65322 8.49346 3.05322 9.53346 3.05322 10.3735Z" stroke="#3F3F3F" stroke-width="2" stroke-linecap="round" stroke-linejoin="round"/>
<path id="Vector_2" d="M11.4133 5.3335V22.6668" stroke="#3F3F3F" stroke-width="2" stroke-linecap="round" stroke-linejoin="round"/>
<path id="Vector_3" d="M20.9734 8.82666V26.6667" stroke="#3F3F3F" stroke-width="2" stroke-linecap="round" stroke-linejoin="round"/>
</g>
</g>
</svg>
