<svg width="32" height="32" viewBox="0 0 32 32" fill="none" xmlns="http://www.w3.org/2000/svg">
<mask id="mask0_439_949" style="mask-type:luminance" maskUnits="userSpaceOnUse" x="2" y="11" width="28" height="20">
<path fill-rule="evenodd" clip-rule="evenodd" d="M2.66724 11.7256H29.3334V30.0509H2.66724V11.7256Z" fill="white"/>
</mask>
<g mask="url(#mask0_439_949)">
<path fill-rule="evenodd" clip-rule="evenodd" d="M23.4206 30.0509H8.58057C5.32057 30.0509 2.66724 27.3989 2.66724 24.1376V17.6376C2.66724 14.3776 5.32057 11.7256 8.58057 11.7256H9.82457C10.3766 11.7256 10.8246 12.1736 10.8246 12.7256C10.8246 13.2776 10.3766 13.7256 9.82457 13.7256H8.58057C6.4219 13.7256 4.66724 15.4803 4.66724 17.6376V24.1376C4.66724 26.2963 6.4219 28.0509 8.58057 28.0509H23.4206C25.5779 28.0509 27.3339 26.2963 27.3339 24.1376V17.6256C27.3339 15.4749 25.5846 13.7256 23.4352 13.7256H22.1779C21.6259 13.7256 21.1779 13.2776 21.1779 12.7256C21.1779 12.1736 21.6259 11.7256 22.1779 11.7256H23.4352C26.6872 11.7256 29.3339 14.3723 29.3339 17.6256V24.1376C29.3339 27.3989 26.6806 30.0509 23.4206 30.0509Z" fill="#3F3F3F"/>
</g>
<mask id="mask1_439_949" style="mask-type:luminance" maskUnits="userSpaceOnUse" x="15" y="2" width="2" height="19">
<path fill-rule="evenodd" clip-rule="evenodd" d="M15 2.66699H17V20.7215H15V2.66699Z" fill="white"/>
</mask>
<g mask="url(#mask1_439_949)">
<path fill-rule="evenodd" clip-rule="evenodd" d="M16 20.7217C15.448 20.7217 15 20.2737 15 19.7217V3.66699C15 3.11499 15.448 2.66699 16 2.66699C16.552 2.66699 17 3.11499 17 3.66699V19.7217C17 20.2737 16.552 20.7217 16 20.7217Z" fill="#3F3F3F"/>
</g>
<path fill-rule="evenodd" clip-rule="evenodd" d="M12.1133 8.57202C11.8587 8.57202 11.6027 8.47469 11.408 8.28002C11.0173 7.89069 11.0147 7.25869 11.4053 6.86669L15.292 2.96269C15.6667 2.58535 16.3333 2.58535 16.708 2.96269L20.596 6.86669C20.9853 7.25869 20.984 7.89069 20.5933 8.28002C20.2013 8.66935 19.5693 8.66935 19.18 8.27735L16 5.08535L12.8213 8.27735C12.6267 8.47469 12.3693 8.57202 12.1133 8.57202Z" fill="#3F3F3F"/>
</svg>
