<svg xmlns="http://www.w3.org/2000/svg" width="24" height="24" viewBox="0 0 24 24" fill="none">
  <g opacity="0.5">
    <path d="M4.14332 3.04473C3.54859 3.19527 3.121 3.67859 3.03549 4.30055C2.98884 4.6254 2.98884 20.3053 3.0316 20.6658C3.10157 21.2006 3.3931 21.6284 3.8479 21.8582L4.10445 21.985L12.4502 21.9968C20.6287 22.0048 20.8036 22.0048 21.0136 21.9295C21.4606 21.771 21.8143 21.3907 21.9426 20.9312C22.0009 20.7331 22.0048 19.9249 21.997 12.4138L21.9853 4.11832L21.8571 3.85289C21.7016 3.52805 21.3945 3.23093 21.0796 3.1002L20.8581 3.00908L12.5979 3.00116C6.12577 2.9972 4.29492 3.00512 4.14332 3.04473ZM20.7531 3.99551C20.8114 4.0272 20.9008 4.09851 20.9552 4.15793L21.0524 4.2649L21.0641 12.4614C21.0719 21.5254 21.0952 20.8123 20.827 20.9748C20.7065 21.054 20.5665 21.054 12.4929 21.054H4.28326L4.14721 20.9312C4.06947 20.8638 3.99173 20.745 3.9684 20.6658C3.94508 20.5667 3.92953 17.8134 3.92953 12.4772V4.43128L4.01894 4.25697C4.06947 4.15001 4.15499 4.0589 4.2405 4.01136C4.36878 3.94401 4.71085 3.94005 12.5124 3.94005C19.4237 3.94005 20.6637 3.94797 20.7531 3.99551Z" fill="#3F3F3F"/>
    <path d="M8.43487 6.05542C7.39279 6.26491 6.53908 7.05049 6.31062 8.0044C6.20641 8.44208 6.24649 9.02565 6.40681 9.4334C6.55511 9.80001 6.81964 10.1853 7.08818 10.4247L7.28858 10.5968L6.97996 10.7614C6.2986 11.1355 5.76553 11.6742 5.41283 12.34C5.16834 12.8039 5.05611 13.1742 5.02405 13.6157L5 13.9561L5.43687 13.9785C5.67735 13.9898 5.88978 13.986 5.90581 13.971C5.92585 13.9523 5.95792 13.8102 5.97395 13.6568C6.0501 13.0284 6.35872 12.441 6.85571 11.9809C7.20842 11.6517 7.58517 11.431 8.03808 11.2889C8.45491 11.1542 9.24449 11.1205 9.67735 11.214C10.9399 11.4909 11.9058 12.5233 12.022 13.7167L12.0461 13.986L12.3467 13.9972C12.511 14.0047 12.7275 13.9972 12.8236 13.986L13 13.9598L12.976 13.6568C12.9118 12.9012 12.5471 12.1044 11.998 11.5283C11.7255 11.2402 11.3968 10.9859 11.0401 10.7801L10.7114 10.5931L10.9599 10.3574C11.2605 10.0693 11.4729 9.74015 11.6132 9.34736C11.7054 9.08551 11.7214 8.9845 11.7214 8.56179C11.7214 8.11289 11.7134 8.04929 11.6012 7.75377C11.1323 6.52677 9.75751 5.78608 8.43487 6.05542ZM9.44088 6.95323C9.77755 7.03552 10.0301 7.17768 10.2786 7.42083C10.6553 7.78743 10.8076 8.17648 10.7715 8.68149C10.7315 9.28003 10.3467 9.81497 9.75351 10.0843C9.48898 10.204 9.46493 10.2078 8.99599 10.2078C8.51904 10.2078 8.51102 10.2078 8.21042 10.0656C7.84168 9.89727 7.54108 9.60922 7.36072 9.25384C7.2004 8.93213 7.16834 8.42712 7.28858 8.07174C7.57315 7.22257 8.51904 6.73252 9.44088 6.95323Z" fill="#3F3F3F"/>
    <path d="M16 7.96682V8.92491L16.4854 8.97578C16.9169 9.00969 18.5933 9.00969 19.609 8.9673L20 8.95034V7.97529V7.00024H18H16V7.96682Z" fill="#3F3F3F"/>
    <path d="M16 12.0002V13.0002H18H20V12.0002V11.0002H18H16V12.0002Z" fill="#3F3F3F"/>
    <path d="M5 17.0002V18.0002H12.5H20V17.0002V16.0002H12.5H5V17.0002Z" fill="#3F3F3F"/>
  </g>
</svg>